<svg id="Layer_1" data-name="Layer 1" xmlns="http://www.w3.org/2000/svg" width="510.4013" height="372.0186" viewBox="0 0 510.4013 372.0186"><title>breeding</title><path d="M420.23,0c5.9772,1.3248,12.04,2.349,17.918,4.022C483.9407,17.055,513.4493,60.1068,510.15,108.87c-3.0249,44.7111-38.9555,83.3886-83.9384,90.2641-26.708,4.0822-51.256-1.4429-73.53-16.8282-.816-.5636-1.6766-1.0625-2.9806-1.8839l-40.4872,30.833-.6846-.6344c6.5832-11.8632,12.7216-24.005,19.9158-35.4853,4.3381-6.9225,4.1963-11.4849-.7672-18.5762C285.1454,95.7912,323.5023,10.1055,396.9307.9155A22.7994,22.7994,0,0,0,400.23,0ZM407.04,189.61c48.3306-.7949,85.8746-39.357,85.1269-87.4353-.7226-46.466-39.742-84.172-86.4346-83.5254-48.0824.6658-85.2532,39.29-84.5269,87.8323C321.8894,152.187,361.3069,190.3616,407.04,189.61Z"/><path d="M89.8206,321.6972c-6.8691-15.0564-13.2463-29.1146-19.7435-43.1171a5.7159,5.7159,0,0,0-2.8113-2.5474c-17.31-7.1856-24.88-20.8714-26.895-38.8127-3.9705-35.3485-.47-69.75,11.7127-103.2462,6.0911-16.7472,16.0951-29.53,34.13-34.0618,19.5972-4.9245,34.3449,5.6956,36.87,26.3949.4979,4.0822.0718,8.2771.0718,13.7335-4.581-5.108-8.3767-9.5693-12.4148-13.7991-10.9115-11.43-29.7472-6.9846-33.94,8.0733-2.0764,7.4567-.1183,14.0663,5.12,19.8422,9.4,10.3654,18.5155,20.9921,28.0638,31.2166,2.9858,3.1971,3.5252,6.2443,2.9057,10.3319-1.1674,7.7025-1.7893,15.4876-2.7389,24.16,9.367-2.1425,18.01-4.1146,26.65-6.0993,1.7831-.4095,3.55-.8875,5.3333-1.2976,13.6744-3.1449,24.8658,2.6069,30.1818,15.6687q15.9867,39.2806,31.8555,78.6094c3.9338,9.7105,7.9259,19.3979,11.798,29.1329,5.47,13.753-.2728,27.93-13.34,33.1351-12.9392,5.1544-26.6423-.9378-32.2024-14.5639q-17.1531-42.0367-34.0977-84.1586c-.68-1.6784-1.3934-3.343-2.2481-5.3894l-14.524,3.4058c3.8342,8.44,7.4593,16.4468,11.107,24.4433,6.3511,13.9234,12.7737,27.8144,19.0611,41.7664,8.3459,18.52-3.06,36.2659-23.3944,36.31q-50.48.11-100.9605-.0147c-12.9763-.0377-23.4318-8.8228-25.1-20.6553C-1.5,337.6133,5.6,326.1349,17.5448,322.7409a35.26,35.26,0,0,1,9.3731-.9977c18.4921-.0886,36.9848-.045,55.4773-.046C84.5225,321.6971,86.65,321.6972,89.8206,321.6972Z"/><path d="M469.3754,204.9475h15.5593c.0973,1.41.2809,2.8332.2814,4.2568q.0214,67.2249-.0123,134.45c-.0237,16.2953-11.8018,28.2924-27.94,28.31q-99.4636.1112-198.9277.0039c-15.953-.0157-28.0148-11.9127-28.049-27.6963q-.1467-67.7245-.05-135.4495c0-1.1408,0-2.2816,0-3.7634h15.872c0,2.6416,0,5.2444,0,7.8471q-.0084,64.2261-.0142,128.4523c0,10.9191,3.8762,14.8175,14.6169,14.817q96.714-.0043,193.4281.0006c11.5544-.0005,15.2515-3.6858,15.2513-15.2053q-.001-64.7257-.0159-129.4515C469.3752,209.542,469.3754,207.5648,469.3754,204.9475Z"/><path d="M197.6314,74.4737a44.201,44.201,0,1,1-44.2222-44.11A44.2466,44.2466,0,0,1,197.6314,74.4737Z"/><path d="M215.3722,254.1788c-1.1291,7.1812-5.1588,13.0315-11.2366,15.3168-6.72,2.5267-10.0029,1.0989-12.6506-5.4572-5.0439-12.4894-10.0313-25.0024-15.1763-37.45C169.9813,211.28,157.07,204.57,140.9017,208.39c-3.1.7326-4.85.08-6.8474-2.1791-16.1079-18.22-32.3474-36.3236-48.4947-54.5088-7.187-8.0941-7.01-17.6021.2974-23.8532,7.1063-6.0787,16.2857-4.8644,23.3491,3.0613q49.8719,55.96,99.6633,111.99C211.6868,246.0853,213.2346,250.3929,215.3722,254.1788Z"/><path d="M251.2459,248.5814v-5.3359H462.9816v5.3359Z"/><path d="M445.0475,278.6871H413.863l-.8879-1.08c.976-.744,1.94-2.1149,2.93-2.1339q13.422-.2566,26.85-.0131c1,.018,1.9759,1.3627,2.9631,2.0921Q445.3827,278.12,445.0475,278.6871Z"/><path d="M297.5016,305.0137c-5.3239,0-10.6509.0989-15.9688-.0785-1.1449-.0381-2.2564-1.0732-3.3833-1.6491,1.0175-.5424,2.03-1.5457,3.0531-1.5563q16.4689-.17,32.94-.0009c1.0441.01,2.0787.9654,3.1178,1.4819-1.0961.6064-2.176,1.7-3.2909,1.7369-5.4842.1815-10.9777.0825-16.4679.0825Z"/><path d="M363.1038,277.0833c1.45-.5762,2.8969-1.637,4.3514-1.6478,7.8819-.0586,15.8213-.2868,23.6727.07l-.37,3.1488H363.6665Q363.3851,277.8688,363.1038,277.0833Z"/><path d="M347.7239,305.0243c-4.6619,0-9.3263.0776-13.9836-.0689-.8773-.0275-1.7265-.9482-2.5887-1.4567.7857-.6054,1.5647-1.7273,2.358-1.7375q14.2329-.1836,28.4683-.0011c.7877.01,1.561,1.1415,2.341,1.7519-.87.4987-1.727,1.4011-2.6113,1.4285-4.6575.1442-9.3217.0676-13.9837.0676Z"/><path d="M284.1805,327.8483c4.4822.0059,8.9668-.0707,13.4446.0694.9157.0286,1.806.87,2.7081,1.3368-.9086.6219-1.8093,1.77-2.727,1.7843q-13.4435.201-26.891.006c-.8309-.0107-1.6489-1.0159-2.473-1.5594.8306-.5477,1.6456-1.5388,2.4945-1.5688C275.2133,327.7584,279.6984,327.8424,284.1805,327.8483Z"/><path d="M325.3478,331.1216c-3.6568-.0013-7.3181.0968-10.9671-.0712-.8981-.0413-1.7563-.95-2.6328-1.46.8031-.5813,1.5978-1.6536,2.41-1.6674q11.2163-.1909,22.4368-.0014c.867.0139,1.7191.9527,2.5781,1.4627-.9518.5794-1.8791,1.6049-2.86,1.6586C332.6679,331.2429,329.0045,331.1229,325.3478,331.1216Z"/><path d="M366.6863,327.857c2.3295,0,4.67-.1272,6.9819.0759.7125.0626,1.3457,1.0264,2.0152,1.5775-.6863.5305-1.36,1.501-2.061,1.52q-7.2326.2027-14.4726-.0012c-.6732-.019-1.3188-1.0187-1.9771-1.5645.6752-.5309,1.32-1.4657,2.0311-1.52,2.4817-.1888,4.9865-.0731,7.4825-.0731Z"/><path d="M261.0381,278.9041c.445-1.5031.6576-3.087.9578-3.1038,3.9126-.2191,7.8389-.2721,11.7576-.1824.3936.009,1.23,1.5337,1.0446,1.813a3.1918,3.1918,0,0,1-2.1066,1.4093C269.1,278.9828,265.4987,278.9041,261.0381,278.9041Z"/><path d="M439.8905,92.9788c1.7044-2.8924,2.7181-5.7509,4.6632-7.6613,3.3836-3.3232,6.9581-6.9622,11.18-8.7608,3.4086-1.4521,7.8889-.3881,11.8938-.44-.8515,3.3837-.9843,7.1882-2.6773,10.0792-7.9207,13.5263-7.9778,26.79.1539,40.1461a10.133,10.133,0,0,1,1.3043,2.6873c.58,2.3259.9864,4.6953,1.4626,7.0472-2.6767.4116-5.425,1.4257-8.0163,1.118-6.8646-.8151-11.8983-4.8695-15.7128-10.4523-1.4891-2.1794-2.6952-4.5523-4.2375-7.1921a125.4026,125.4026,0,0,1-46.2638,5.3044,232.4382,232.4382,0,0,1-31.9443-5.0372c-4.7107-1.0272-9.3173-3.66-13.3338-6.4741-5.83-4.0842-5.8781-9.8451-.1711-14.0393a42.1594,42.1594,0,0,1,12.3364-6.3023c24.6439-7.5589,49.5164-7.3991,74.4517-1.3549C436.5742,92.0329,438.1484,92.5039,439.8905,92.9788Zm-68.8436,6.1574a7.164,7.164,0,0,0-6.84,7.1323,7.0161,7.0161,0,1,0,14.0275-.3307A7.2313,7.2313,0,0,0,371.0469,99.1362Z"/><path d="M324.732,277.1145a10.1692,10.1692,0,0,1,1.2666-2.0809,10.7221,10.7221,0,0,1,3.0366-2.3795c.9258-.3944,2.1427-.1054,3.2305-.12a10.52,10.52,0,0,1-.7272,2.7376,9.9079,9.9079,0,0,0,.0418,10.9042,2.7519,2.7519,0,0,1,.3543.73c.1577.6317.2679,1.2753.3973,1.9141a8.5026,8.5026,0,0,1-2.1774.3036,5.9858,5.9858,0,0,1-4.2677-2.8389c-.4045-.592-.7321-1.2365-1.151-1.9535a34.0589,34.0589,0,0,1-12.5658,1.4407,63.1417,63.1417,0,0,1-8.6764-1.3681,10.5079,10.5079,0,0,1-3.6216-1.7585c-1.5834-1.1093-1.5966-2.674-.0465-3.8132a11.4507,11.4507,0,0,1,3.3507-1.7118,37.5888,37.5888,0,0,1,20.2219-.368C323.8313,276.8576,324.2588,276.9855,324.732,277.1145Zm-18.6987,1.6725a1.9457,1.9457,0,0,0-1.8579,1.9372,1.9056,1.9056,0,1,0,3.81-.09A1.964,1.964,0,0,0,306.0333,278.787Z"/><path d="M418.6949,299.6789a10.1692,10.1692,0,0,1,1.2666-2.0809,10.7221,10.7221,0,0,1,3.0366-2.38c.9258-.3944,2.1427-.1055,3.23-.12a10.525,10.525,0,0,1-.7272,2.7377,9.9075,9.9075,0,0,0,.0418,10.9041,2.7548,2.7548,0,0,1,.3543.73c.1576.6318.2679,1.2753.3972,1.9141a8.5014,8.5014,0,0,1-2.1773.3037,5.9861,5.9861,0,0,1-4.2678-2.839c-.4044-.5919-.732-1.2365-1.1509-1.9534a34.0612,34.0612,0,0,1-12.5658,1.4407,63.1267,63.1267,0,0,1-8.6764-1.3682,10.509,10.509,0,0,1-3.6217-1.7584c-1.5833-1.1093-1.5965-2.674-.0464-3.8132a11.4483,11.4483,0,0,1,3.3507-1.7118,37.5888,37.5888,0,0,1,20.2219-.368C417.7941,299.422,418.2217,299.55,418.6949,299.6789Zm-18.6987,1.6724a1.9458,1.9458,0,0,0-1.8579,1.9372,1.9056,1.9056,0,1,0,3.81-.09A1.9642,1.9642,0,0,0,399.9962,301.3513Z"/><path d="M410.884,325.4543a37.59,37.59,0,0,1,20.2219.368,11.4507,11.4507,0,0,1,3.3507,1.7118c1.55,1.1392,1.537,2.7039-.0464,3.8133a10.5108,10.5108,0,0,1-3.6217,1.7584,63.1417,63.1417,0,0,1-8.6764,1.3681,34.0594,34.0594,0,0,1-12.5658-1.4407c-.4189.717-.7465,1.3615-1.1509,1.9535a5.9862,5.9862,0,0,1-4.2678,2.8389,8.5018,8.5018,0,0,1-2.1773-.3036c.1293-.6388.24-1.2824.3972-1.9141a2.7519,2.7519,0,0,1,.3543-.73,9.9075,9.9075,0,0,0,.0418-10.9042,10.5243,10.5243,0,0,1-.7272-2.7376c1.0878.0142,2.3047-.2748,3.2305.12a10.7211,10.7211,0,0,1,3.0367,2.38,10.1655,10.1655,0,0,1,1.2665,2.0808C410.0233,325.6872,410.4509,325.5593,410.884,325.4543Zm15.4128,3.8818a1.9056,1.9056,0,1,0,3.81.09,1.9056,1.9056,0,0,0-3.81-.09Z"/></svg>