<svg id="Layer_1" data-name="Layer 1" xmlns="http://www.w3.org/2000/svg" width="114.1022" height="68.9774" viewBox="0 0 114.1022 68.9774"><title>cleaning</title><path d="M78.6679,66.8021c-3.74-.4079-6.867-.9333-10.0085-1.0455-4.0469-.1446-8.1055.0433-12.1591.0852-3.5407.0366-7.0845-.0123-10.6214.1221-6.1057.232-12.2074.57-18.31.8789-1.7155.0869-3.4283.2285-5.4142.3635.0888-.9555-.07-1.7527.2444-2.2519,4.1705-6.6214,5.4193-14.2476,7.4225-21.596,2.2653-8.31,7.0559-13.6384,15.9838-14.5441a17.7358,17.7358,0,0,0,2.45-.6258c-2.8658-1.9211-7.64-1.0538-8.0884-6.3409l4.818-.329-.2341-.6753c1.062-.5286,2.1587-1.5562,3.1791-1.4853,2.3619.1641,5.5811-.8667,6.0775,3.266.0472.393,2.4344.5048,4.4629.8827l-4.997,5.2265c2.7435,1.6435,5.6054,3.53,8.624,5.1183a14.0583,14.0583,0,0,1,6.5478,7.0234c3.2877,7.5717,6.4743,15.1875,9.64,22.8113A13.5015,13.5015,0,0,1,78.6679,66.8021ZM5.5524,50.193c6.7277,0,12.5887-.0563,18.4476.0316,1.9594.0294,2.7838-.6805,3.3113-2.6092C28.97,41.55,30.3241,35.28,35.5931,30.94c-1.8026-3.7889-5.484-4.2262-8.6909-5.234l4.8223-3.805c-5.39-1.28-6.64-1.1437-12.4632,1.05l2.7606,3.2726C10.5214,30.1577,9.653,40.91,5.5524,50.193ZM110.5376,40.99c.0807-1.4251.0721-2.8623.2621-4.2727.3209-2.3824-.66-3.3217-3.029-3.3715-2.8579-.06-5.7149-.3379-8.5639-.6089-4.763-.4532-9.5194-.9757-14.2786-1.469l.0257-.6h28.41v5.5565l.7379-.0214V29.5523c-8.7665,0-17.4392.0472-26.1112-.0139-7.8795-.0556-15.9554,1.4579-23.3227-2.9288a46.4059,46.4059,0,0,0-5.2658-2.3321l-1.8392,2.7483c3.2459,1.3926,6.42,2.5068,9.3343,4.0973a12.584,12.584,0,0,1,4.5648,4.0688c4.056,6.4914,7.7732,13.1932,11.72,19.7547,2.5284,4.2039,5.2817,8.2836,4.4835,13.5706-.0112.0744.2566.191.639.46.1391-.5221.2865-.9421.3608-1.3747.7043-4.1028-.929-7.5036-3.02-10.8837-3.35-5.413-6.483-10.96-9.7078-16.45,4,3.8725,7.3666,8.1957,11.0062,12.2756,2.8057,3.145,5.156,6.298,4.2912,10.8315-.0516.27.1969.5981.3057.8991.6472-3.32,1.6235-6.4447-1.09-9.4019-3.7944-4.135-7.198-8.6289-10.7622-12.9747-.7142-.8709-1.3984-1.7664-2.0964-2.6505,4.63,3.0426,8.5653,6.7336,12.8172,10.0148,3.117,2.4054,5.3561,4.9081,4.5038,9.1363-.0719.357.205.7842.32,1.1788.7459-3.5043,1.7688-6.8367-1.9729-9.4783-3.5742-2.5234-6.7129-5.665-10.0329-8.5466-1.7467-1.516-3.4717-3.057-5.2064-4.5868,5.2765,2.4995,10.089,5.59,15.1013,8.313,3.6182,1.9655,6.657,3.97,5.5053,8.7915-.0458.1919.2058.455.3637.7763,1.7331-4.07,1.0144-6.7421-2.237-8.6864-2.1043-1.2584-4.2161-2.5042-6.3115-3.7772q-5.4754-3.3264-10.9347-6.679C85.75,37.5223,91.6312,40.1,97.6982,42.12c3.55,1.1821,5.3723,2.8571,4.5779,6.7127-.0934.4531.1927.9844.4206,2.0085,1.8064-5.9856,1.1413-7.5287-3.5691-9.3495-2.19-.8465-4.3792-1.6939-6.5608-2.5612Q87.0125,36.7228,81.4681,34.49c6.7537.88,13.2729,2.5357,19.874,3.7422,3.5069.641,5.3217,1.9574,4.5546,5.724a4.4356,4.4356,0,0,0,.2848,1.5667,6.0758,6.0758,0,0,0,.9294-3.0715c.5427-3.1578-.7091-4.3365-3.9213-4.9318-7.2917-1.3514-14.4778-3.2729-21.7068-4.9626l.0528-.3572,27.8611,2.5819c.1153,2.2753.2141,4.2271.313,6.179ZM24.0485,9.03C17.0115,6.012,9.9774,2.9856,2.8878.0963,2.1079-.2215.9712.3363,0,.488.5052,1.33.98,2.1922,1.5359,2.9989c.1471.2133.5444.2535.8263.3745q13.3673,5.74,26.7348,11.48c3.8451,1.65,7.6708,3.3491,11.5525,4.9082,1.6411.6592,3.4874,1.2015,3.7554-1.9345C37.5288,14.8536,30.7966,11.923,24.0485,9.03Z"/></svg>