<svg id="Layer_1" data-name="Layer 1" xmlns="http://www.w3.org/2000/svg" width="188.4947" height="134.0774" viewBox="0 0 188.4947 134.0774"><title>donate</title><path d="M39.7348,118.4916C35.1055,108.0051,30.2911,97.2571,25.71,86.41c-.35-.8281.643-2.7293,1.55-3.4827,2.2924-1.9031,5.1342-3.169,7.33-5.16,15.2986-13.8691,32.787-15.8406,51.14-8.1994a205.388,205.388,0,0,0,47.42,13.4976c.329.0516.6606.1.9822.1834,3.8929,1.0114,8.5855,1.762,8.6209,6.7861.0365,5.1975-4.5782,7.0032-8.7609,7.1327-5.2422.1622-10.5214-.9729-15.7889-1.5056-8.5816-.8677-17.1531-1.9571-25.7575-2.41-3.0133-.1586-6.565.4177-8.6615,4.1575,1.0135.47,1.6689,1.0633,2.096.9292,10.6689-3.3486,21.1263-.7314,31.6167,1.0234,4.1049.6867,8.2987,2.1949,12.2992,1.7961A31.5115,31.5115,0,0,0,143.1529,96.92c5.03-3.1763,4.3236-8.4384,1.728-13.0247,7.9879-6.5739,15.86-12.7087,23.3205-19.308,5.3617-4.7426,11.0926-3.8263,16.8134-1.8807,3.767,1.2811,4.3737,5.1049,2.3126,7.8911-9.5729,12.9411-16.2212,28.4852-32.7161,35.2842A178.8272,178.8272,0,0,0,130.34,118.73c-9.3467,5.6711-18.9933,6.6427-29.28,3.7622-8.5-2.38-17.08-4.5172-25.4676-7.2443-10.6852-3.4741-20.9392-3.2846-30.9593,2.051a22.7457,22.7457,0,0,1-3.2471,1.2743A6.6354,6.6354,0,0,1,39.7348,118.4916ZM117.8455,5.2338c-6.1541-5.3683-13.225-6.8849-20.8475-3.2459C89.94,5.3576,86.3512,11.49,86.8293,18.9146a40.4628,40.4628,0,0,0,4.62,16.0529c7.2633,13.54,20.0445,21.4837,32.4328,29.6129,1.0346.6788,3.5846.1,4.8251-.7645,6.1362-4.2743,12.2944-8.5719,18.018-13.37,7.7465-6.4946,14.1-14.1442,16.8245-24.22,2.7439-10.1469-.6184-19.5174-8.59-23.9043-7.9665-4.384-17.0105-2.3844-24.2241,5.4823-1.7751,1.9359-3.2617,4.1363-5.033,6.41C122.8589,10.9131,120.6757,7.7026,117.8455,5.2338ZM20.6188,132.9083c.3885.8508,3.1649,1.4977,4.2389.99a76.6093,76.6093,0,0,0,11.2073-6.5122c1.0167-.7132,1.867-3.1755,1.4107-4.2467q-8.4165-19.7574-17.3944-39.2716c-.54-1.174-2.9-2.5139-4.04-2.2367C10.903,82.88,5.9,84.6844,0,86.5577,7.0586,102.557,13.7146,117.7894,20.6188,132.9083Z"/></svg>