<svg id="Layer_1" data-name="Layer 1" xmlns="http://www.w3.org/2000/svg" width="383.6616" height="384.4605" viewBox="0 0 383.6616 384.4605"><title>email</title><path d="M190.8444,384.4541C89.3079,385.324.8513,298.5961.0072,197.3464-.9,88.487,83.5845.9373,190.4382.007c103.5172-.9012,192.22,84.8487,193.2131,186.7816C384.7294,297.4117,300.7449,383.5124,190.8444,384.4541Zm1.2033-16.294c95.2414.6681,174.9947-78.533,175.5007-174.2857C368.0633,96.45,289.804,17.4273,192.0129,16.627c-95.4085-.7809-174.72,77.6046-175.8724,173.82C14.9712,288.0392,93.5942,367.4694,192.0477,368.16Z"/><path d="M194.2574,281.8092c-34.0369,0-68.0741.0678-102.1108-.0275-18.0315-.05-25.4764-7.7044-25.5062-25.9855q-.1029-63.0957-.0775-126.1914c.0193-19.0481,8.0532-27.02,26.8985-27.0186q101.6289.0065,203.2578.0353c17.6956.0042,25.8455,8.0093,25.8942,25.8572q.1722,63.0938.0891,126.188c-.0347,20.2235-6.9608,27.1047-27.2972,27.1727-33.7156.1126-67.4319.0306-101.1479.0306ZM93.3208,118.9515c30.74,28.0063,59.5319,54.4575,88.599,80.6025,10.508,9.4516,15.01,9.2925,25.6963-.1106,13.2324-11.6437,26.17-23.6236,39.1868-35.5108,15.9444-14.5605,31.839-29.1754,49.08-44.9811Zm202.0363,146.9-65.9962-60.44c-31.8178,24.73-35.3226,24.7335-69.5777.1918L94.0558,265.8517ZM240.4022,193.1l65.8049,61.2621V133.5465ZM82.851,254.7044l66.07-61.5843L82.851,133.313Z"/></svg>