<svg id="Layer_1" data-name="Layer 1" xmlns="http://www.w3.org/2000/svg" width="510.6219" height="470.0646" viewBox="0 0 510.6219 470.0646"><title>fishing</title><path d="M510.6219,168c-7.8541,6.5706-15.2144,13.88-23.6781,19.5386-12.6732,8.4735-26.1216,15.7873-39.3014,23.6307-3.3339-3.88-5.9814-7.0805-8.7549-10.1674-7.9232-8.8183-20.4132-9.7395-29.0739-2.2009-8.5025,7.4011-10.1933,20.5148-1.7884,28.4824,8.8076,8.3492,8.2141,15.3718,2.2162,24.7044-6.1851,9.6237-11.1044,20.0561-19.9215,28.8933-.6088-4.5037-.9818-8.33-1.6638-12.1a51.4513,51.4513,0,0,0-12.0419-25.3829,6.4,6.4,0,0,0-5.3359-1.4737c-20.62,5.2174-41.1671,10.7257-61.7646,16.0356-5.019,1.2939-7.5946,4.762-8.7075,9.3242-1.6545,6.7829-2.7387,13.7027-4.277,20.5166-3.6644,16.231-12.5178,28.6936-27.229,37.2916-1.2573-10.2516-2.0717-20.1366-3.7927-29.8612-1.2963-7.3253-3.7068-14.4583-5.7155-21.6506-.9794-3.5068-3.2295-4.74-7.0516-4.6392-31.8166.8427-63.6394,1.45-95.459,2.1854-2.9787.0688-5.9484.5306-9.24.5239,11.2167-3.9493,14.2-12.8057,15.9737-23.4009,1.7452-10.4251,5.2451-20.59,8.4861-30.705a10.2574,10.2574,0,0,1,5.5045-5.4768q70.6024-27.7361,141.3464-55.112a21.357,21.357,0,0,0,5.2078-2.7429c-51.2372,9.5175-98.7734,29.6327-146.265,50.7182,4.8594-9.4173,8.4007-19.8213,17.636-26.0744,20.0181-13.554,26.8093-33.0214,25.7171-56.0508-.375-7.9078-3.2767-13.3659-12.3942-27.0141,6.8772.5015,13.053.7352,19.1748,1.4393,17.9,2.059,35.0173,6.9188,50.3479,16.5383,12.7581,8.0053,26.1113,11.0579,41.2435,10.4a614.6616,614.6616,0,0,1,94.8454,2.8274c15.0973,1.6825,29.83,4.4922,43.8016,11.089,11.8634,5.6013,24.33,9.9139,36.45,14.9884,6.1675,2.5824,12.0648,5.7078,15.5057,11.9255Zm-62.9775-15.9921a12.144,12.144,0,0,0-11.9856,12.1255,11.9847,11.9847,0,0,0,12.5183,12.017,12.0752,12.0752,0,0,0-.5327-24.1425ZM376.63,219.3988C361,198.4145,350.4531,175.4345,348.693,148.9217,341.4169,172.3775,353.4864,202.8882,376.63,219.3988Zm12.2119-10.8554c-19.8058-35.6056-19.8058-35.6056-22.6393-59.031C359.8433,168.2553,369.9412,195.3726,388.8416,208.5434Z"/><path d="M278.6219,0c1.5307.5256,3.04,1.129,4.5955,1.565C305.4092,7.7838,318.76,28.4388,315.61,51.7166c-2.8793,21.2814-22.1171,37.5179-44.437,37.5044-22.5524-.0136-40.9457-16.5821-44.0426-39.6731-2.8531-21.2731,11.4031-42.1122,32.8488-48.0447C261.5456,1.07,263.0752.5042,264.6219,0Zm28.3886,32.2748c-9.5087,12.6231-22.257,15.0039-35.6527,15.0218-13.5625.0181-26.3113-2.726-35.3539-14.9861-.0346,6.8356,2.3826,10.875,8.6191,14.6972,8.3457,5.115,17.65,6.7629,27.2224,6.7129s18.897-1.74,27.1061-7.086C303.6487,43.5758,307.43,39.7324,307.0105,32.2748Z"/><path d="M234.9035,273.7437c5.3291,0,10.6712.2235,15.9827-.0824,3.2789-.1888,4.743,1.0754,5.7719,4.0153a61.7939,61.7939,0,0,1,3.1367,28.8715c-5.9806,47.3877-11.3307,94.8545-17.1075,142.2686a24.277,24.277,0,0,1-27.4707,21.0006,24.72,24.72,0,0,1-21.0423-27.5424q7.8663-66.19,15.5777-132.399c1.2457-10.5781,2.7089-21.1333,3.7659-31.7295.3117-3.1249,1.6122-3.919,4.4-3.8682,5.66.1031,11.3235.0308,16.9855.0308Z"/><path d="M327.2218,259.5257c2.1824,18.3569,4.2815,36.0081,6.379,53.6594q5.83,49.0645,11.6512,98.13c1.2492,10.5731,2.6318,21.1376,3.55,31.7408,1.1857,13.6864-8.0421,25.0634-21.2911,26.785A24.1015,24.1015,0,0,1,300.42,449.0073c-3.2543-24.0646-5.9024-48.2115-8.7651-72.3286q-3.2064-27.0112-6.27-54.0392c-.1723-1.5281-.2839-3.7018.5853-4.6119,11.29-11.821,15.151-26.6571,17.5469-42.1368.2031-1.3116.5981-2.5955.7694-3.91.8458-6.4869,4.0027-10.1823,11.0355-10.3459C319.0705,261.548,322.7937,260.351,327.2218,259.5257Z"/><path d="M51.3274,347.4316c4.85-7.549,10.0563-14.0043,13.4026-21.3113,3.55-7.7524,6.5079-16.1537,7.6518-24.5539,2.5893-19.0133-6.2652-33.41-20.871-44.7842C37.5367,245.9,21.6218,238.847,4.9923,233.2055A11.2365,11.2365,0,0,1,0,230.3754c8.9311-2.121,17.7873-4.6607,26.8092-6.2737a95.9953,95.9953,0,0,1,51.1634,4.35c10.425,3.9,19.8872,3.6562,29.6455-1.6148,6.5636-3.5454,13.5631-6.2839,20.8832-9.6182a31.2432,31.2432,0,0,1-.3249,3.4366c-1.6447,7.6377-3.5238,15.23-4.97,22.9044-3.1542,16.74,3.0127,25.6234,20.4953,28.9781-1.7282.2834-2.7415.5323-3.7674.6052-12.3541.8767-20.4317,7.1444-26.5763,18.0235a354.0611,354.0611,0,0,1-25.34,38.21C80.815,338.97,71.3038,346.1531,58.6131,347.4,56.3466,347.6226,54.04,347.4316,51.3274,347.4316Z"/><path d="M213.2648,110.6469c5.672,11.0805,5.55,22.2126,1.9205,33.2464a31.5053,31.5053,0,0,1-7.2992,12.03c-26.9652,27.0129-44.0557,58.9271-49.3662,96.9269-1.3781,9.8616-9.2556,15.7108-18.7628,14.19-8.6286-1.38-14.0493-9.6685-12.6725-18.9674,8.2569-55.7645,36.1637-99.6364,80.65-133.4995C209.4377,113.277,211.2252,112.0908,213.2648,110.6469Z"/><path d="M425.2707,197.9956c2.286,1.3262,6.7357,2.9868,9.9361,5.9821,4.7029,4.4015,8.4133,9.8464,12.7446,14.6689,2.3317,2.596,2.2536,5.1022.4176,7.651a39.5972,39.5972,0,0,1-19.3005,14.3356,5.9853,5.9853,0,0,1-5.1709-1.39c-4.6366-4.986-9.045-10.2075-13.2362-15.5777-3.9233-5.027-4.35-10.76-1.6152-16.4507C411.8,201.4842,416.7323,198.7066,425.2707,197.9956Z"/><path d="M360.355,119.0617c-4.1814,0-6.9315-.0393-9.68.0066-13.312.2223-26.6434.9872-39.9271.4844a57.7654,57.7654,0,0,1-19.5895-4.5247c-9.0158-3.7569-17.4749-8.85-26.8124-13.7073a36.1472,36.1472,0,0,1,3.8115-.4433c13.65-.0265,27.3-.0739,40.9489.0007C322.68,100.9522,344.8492,108.69,360.355,119.0617Z"/></svg>