<svg id="Layer_1" data-name="Layer 1" xmlns="http://www.w3.org/2000/svg" width="538.2353" height="535.2941" viewBox="0 0 538.2353 535.2941" preserveAspectRatio="xMidYMid meet"><title>membership</title><path d="M278.2327,1.8139a257.15,257.15,0,0,1,53.7359,9.15c20.5091,5.72,45.6976,15.455,45.6992,15.4562h0c-.0006-.0011,14.5169-9.77,27.8014-15.7294,6.8774-3.085,18.1731-8.0287,33.6228-8.923a88.4825,88.4825,0,0,1,33.7759,4.9031A91.1656,91.1656,0,0,1,501.2973,22.923a92.8921,92.8921,0,0,1,18.6112,21.3585,85.5344,85.5344,0,0,1,12.8044,32.3276,82.9566,82.9566,0,0,1-1.0673,33.0153c-5.6466,23.5039-21.6435,43.0465-22.0153,43.6853h0a9.5921,9.5921,0,0,0-2.1933,3.7519,8.1575,8.1575,0,0,0,.8845,4.7542,245.9909,245.9909,0,0,1,18.4433,65.7608q1.39,10.33,2.7837,20.66v31.81a35.2652,35.2652,0,0,0-.87,4.4071c-2.9459,41.101-14.7319,79.5571-36.2608,114.6156-41.686,67.8829-101.7915,109.5727-180.2959,124.1945-9.8687,1.8381-19.9108,2.7445-29.8726,4.0825H251.4646a27.6654,27.6654,0,0,0-3.9692-.8411c-27.6688-1.8369-54.5016-7.69-79.8908-18.7453C80.25,469.7218,26.9286,403.93,8.3194,310.3542c-1.9853-9.983-2.7979-20.1992-4.1545-30.3073V249.2627a34.7632,34.7632,0,0,0,.8675-4.41c2.2155-32.0468,9.8426-62.8053,24.0156-91.5741Q59.153,92.17,107.8921,55.1356S156.985,17.9164,221.0852,6.1229C250.6489.6836,273.2307,1.55,278.2327,1.8139ZM368.73,41.26C276.5592-4.02,138.9817,14.65,62.76,127.3111c-73.5219,108.671-43.6207,242.03,31.6421,312.0916.7568-2.3866,1.438-4.659,2.1957-6.9058,18.5559-55.0275,53.2148-95.4877,107.1273-118.6139,3.32-1.4241,5.7122-1.1874,8.892.6821,36.0077,21.17,72.1984,21.2569,108.262.1376,3.1659-1.854,5.6071-2.1606,8.9329-.7453,49.2116,20.9415,82.53,57.1417,102.2859,106.3584,2.5553,6.3659,4.56,12.9529,7.0472,20.0913,41.4574-41.747,65.8493-90.9883,72.428-148.7537,4.8673-42.7367-1.5125-83.9059-18.419-123.6179-43.9929,26.4791-88.2522,12.9409-112.617-10.96A89.1443,89.1443,0,0,1,354.58,108.62C350.115,84.3208,355.3455,61.8735,368.73,41.26ZM471.2328,64.1618c-1.5971-14.4816-9.873-24.32-21.6476-25.0857-7.7651-.505-15.7354-1.249-22.7928,3.6863-7.58,5.3007-10.5687,12.981-11.4678,21.6078-14.9427,1.1922-24.6066,9.9223-25.2856,22.4858-1.1646,21.5489,5.23,30.0633,25.2461,33.6147,2.3594,16.06,10.7038,24.4083,23.9169,25.24,19.5828,1.2327,30.433-6.41,32.5974-25.3151,15.63-2.28,26.3053-10.6919,25.0267-31.5881C496.0048,75.3848,487.8533,66.89,471.2328,64.1618ZM180.6648,227.44c-.0928,47.4513,38.5171,86.3729,85.7868,86.48a86.4377,86.4377,0,0,0,86.6111-86.194c.0782-47.3088-38.7029-86.153-86.0638-86.2038C219.5573,141.4711,180.7574,180.0841,180.6648,227.44ZM432.1283,120.9549c.1463,5.4409,2.9236,8.0835,8.29,8.24,1.707.05,3.4167.02,5.1249.0077,6.8142-.0511,9.2131-2.3855,9.2975-9.2115.0668-5.3971.0134-10.7958.0134-15.9676a13.14,13.14,0,0,1,1.826-.4221c4.4413-.0364,8.883-.03,13.3241-.0795,7.9748-.09,10.2877-2.5841,10.29-11.0348.0024-8.941-2.2035-11.4071-10.37-11.479-5.0448-.0444-10.09-.0082-15.2934-.0082,0-5.7534.0413-10.7-.01-15.6449-.0766-7.4165-2.7828-10.0291-10.2933-10.05-9.597-.0264-12.1253,2.04-12.2386,10.1578-.0706,5.0569-.0131,10.1155-.0131,15.5211-6.2551,0-11.8688-.1224-17.4746.035-5.4348.1527-8.0143,2.9064-8.1769,8.3391-.0562,1.8776-.0655,3.7593-.0156,5.637.15,5.6357,2.8457,8.3944,8.57,8.5178,5.4491.1174,10.9026.0253,17.1163.0253C432.0949,109.7453,431.9777,115.3537,432.1283,120.9549Z"/></svg>