<svg id="Layer_1" data-name="Layer 1" xmlns="http://www.w3.org/2000/svg" width="395.3026" height="309.7336" viewBox="0 0 395.3026 309.7336"><title>office</title><path d="M280.1537,297.6373V11.9511H107.8906c0,2.0331,0,3.9749,0,5.9167q.0022,25.2471-.0012,50.4943c-.0007,1.4977.4763,3.3886-.2435,4.4089-1.3818,1.9586-3.5051,4.7948-5.2441,4.742-2.1216-.0645-4.4966-2.4509-6.1064-4.38-.8545-1.024-.4021-3.205-.404-4.8639q-.0351-31.7463-.0183-63.4927c.0005-1.4723.13-2.9444.2169-4.7763H292.4023V115.0756h102.9v194.658H96.2791c-.1433-1.495-.3945-2.9059-.396-4.3172-.02-17.8313-.082-35.6634.101-53.4929a10.758,10.758,0,0,1,2.2825-6.7092c1.0985-1.194,4.5837-1.79,5.7706-.9356a9.3644,9.3644,0,0,1,3.6957,6.2836c.3667,10.82.16,21.6585.1577,32.4906-.0013,4.7876,0,9.5752,0,14.5844Zm12.451-.1266H383.201V127.5429H292.6047ZM68.18,278.0011C60.0645,265.1031,52.2,252.604,44.3354,240.1044c-11.6062-18.4477-23.4395-36.7572-34.77-55.3726C-14.0415,145.948,8.194,95.9635,52.7321,87.2664c32.1034-6.2689,65.5589,16.72,72.8175,49.9093,3.2564,14.8892,1.7728,29.2094-5.2548,42.6868-16.6077,31.85-33.4636,63.57-50.2341,95.3344C69.617,276.0374,69.0011,276.7869,68.18,278.0011Zm-1.206-24.287c.855-.6715,1.2115-.8171,1.3483-1.078,14.3054-27.2634,29.4359-54.1346,42.6666-81.9107,15.8293-33.2315-7.5947-70.5678-44.3736-72.1874-20.1647-.8879-36.6673,6.6144-47.5735,23.8848-10.91,17.2763-11.1433,35.61-.7592,53.0343C33.9593,201.7628,50.5954,227.4967,66.974,253.7141Zm122.33-61.5747H134.9512V136.2747H189.304Zm-42.3589-12.12h30.29V148.2172h-30.29Zm54.1028-43.941h54.1612v56.0655H201.0479Zm42.24,43.9628v-31.69H212.8821v31.69ZM189.21,109.67H134.9641V53.95H189.21Zm-11.8454-43.695h-30.377V97.4959h30.377Zm23.65-12.1518h54.13v55.8128h-54.13Zm42.2862,12.2352H213.05V97.5965h30.2507ZM135.0491,218.6862h54.2347v55.7869H135.0491Zm11.9675,11.9857v31.8394h30.1458V230.6719Zm54.0307-11.993h54.2361v55.7986H201.0473Zm12.0077,12.0269v31.7715h30.2321V230.7058Zm146.3383-64.72v46.4709H314.2245V165.9859ZM347.13,200.5306V177.9165H326.1868v22.6141Zm-33.0242,77.0125v-46.42h45.1106v46.42Zm33.21-34.3524H326.1924v22.4334h21.1234ZM63.5891,171.8683c-12.8893-.11-24.94-11.97-24.9086-24.5148.0323-12.9838,12.244-25.1229,25.0359-24.887,12.8947.2378,24.8856,12.2737,24.6733,24.7661C88.1721,160.0423,76.159,171.9755,63.5891,171.8683Zm.3958-37.4013c-8.0656-.0942-13.2571,4.6819-13.3029,12.2383-.0485,8.0063,4.7264,13.0767,12.3963,13.1636,8.0322.0911,13.2689-4.7247,13.3154-12.245C76.4432,139.6274,71.6607,134.5566,63.9849,134.467Z"/></svg>