<svg id="Layer_1" data-name="Layer 1" xmlns="http://www.w3.org/2000/svg" width="550.8574" height="551.3942" viewBox="0 0 550.8574 551.3942"><title>phone</title><path d="M294.0541,551.3942H257.2973a64.81,64.81,0,0,0-8.2448-1.9006C131.7593,537.721,36.9236,456.121,8.4478,341.8453,4.549,326.1991,2.7638,310.0261,0,294.0969V257.34a107.29,107.29,0,0,0,2.0622-10.5643C16.8819,92.839,161.3257-19.8938,314.55,2.9446c128.1341,19.0986,223.135,119.9281,235.16,249.5873,11.6482,125.6-66.4315,245.1684-186.6449,283.99C340.784,543.7168,317.0938,546.5485,294.0541,551.3942ZM32.4151,275.16C32.249,408.7779,141.4726,518.6428,274.811,518.9786c133.5941.3365,243.6985-108.8532,244.1247-242.0966C519.3649,142.7,409.77,32.4674,275.9259,32.4578,142.3081,32.4483,32.5809,141.811,32.4151,275.16ZM176.7328,123.32c-34.262,17.0481-44.89,35.2528-41.5675,70.4768a194.565,194.565,0,0,0,3.2663,21.7527c13.45,63.9167,43.362,119.98,82.6431,171.4109,20.1744,26.4141,42.8751,50.3837,71.9766,67.2864C316.524,467.88,342.7086,464.9215,363.34,446.42l-50.9317-88.1967c-22.6592,10.3965-39.94.1051-55.4541-14.4018-22.3738-20.921-36.36-47.061-43.0048-76.7332-4.5083-20.1327-4.5967-40.0588,14.2081-54.8947Zm103.1559,67.2786c1.9086-1.4525,1.3377-8.8239-.499-12.1177-15.44-27.69-31.36-55.1138-47.3291-82.5052-4.347-7.4566-10.4882-9.76-18.4767-4.8781-7.28,4.4487-14.7839,8.53-22.1066,12.9106-7.4617,4.4643-9.8218,10.262-5.0934,18.3882,15.7449,27.0586,31.1647,54.3076,47.09,81.2584,2.1942,3.7131,6.54,6.1548,11.21,10.3794C257.3456,205.816,269.0845,198.8214,279.8887,190.5987Zm75.71,129.9632c-9.1443,5.1323-18.1966,10.4382-27.458,15.35-9.95,5.2771-11.9289,12.0142-5.9947,21.9028,11.914,19.853,23.3709,39.9827,34.8663,60.0841,19.2746,33.7044,14.5825,33.41,51.52,11.8842,8.3362-4.8581,10.0178-11.002,5.2017-19.3q-23.2423-40.0473-46.27-80.2186c-2.4617-4.3147-3.9689-9.174-5.9173-13.7816Z"/></svg>