<svg id="Layer_1" data-name="Layer 1" xmlns="http://www.w3.org/2000/svg" width="145.9361" height="198.0799" viewBox="0 0 145.9361 198.0799"><title>shopTRAA</title><path d="M29.2083,53.4027c-3.277-15.7647-.05-29.1287,11.0981-40.0639A44.9645,44.9645,0,0,1,73.2107.0015,45.1675,45.1675,0,0,1,108.023,15.8607c7.9286,8.958,9.174,14.257,9.2958,37.5424,2.2541,0,4.5232-.02,6.7917.0036,8.5622.09,11.8683,2.95,12.5493,11.4321,1.52,18.9292,2.8618,37.8727,4.2949,56.8089q2.3,30.3969,4.6343,60.7913c.0887,1.1629.1963,2.3246.2662,3.4887.5783,9.6421-1.808,12.1472-11.6146,12.1483q-61.488.0069-122.9761-.0015c-9.3226-.0018-11.857-2.6358-11.1543-12.09q4.4825-60.3023,9.116-120.5932C9.924,56.2894,13.11,53.468,22.2822,53.4048,24.39,53.39,26.4984,53.4027,29.2083,53.4027Zm44.4116,61.57c-3.1549-3.1868-5.1562-5.4141-7.3683-7.4074-10.0824-9.0846-24.38-6.79-31.0131,5.0951C30.23,121.635,31.3079,130.56,37.4,138.413A110.9712,110.9712,0,0,0,69.35,165.98c1.93,1.1318,5.7207.99,7.7016-.1756a118.1881,118.1881,0,0,0,30.912-26.5387,27.0153,27.0153,0,0,0,3.9664-6.8845,22.1547,22.1547,0,0,0-7.9051-26.9655c-8.6452-5.7448-17.7161-4.3812-26.02,4.0282A67.3043,67.3043,0,0,0,73.62,114.9725ZM72.8053,53.4c10.482,0,20.966.1016,31.4437-.1118,1.5323-.0312,4.1674-1.3678,4.3505-2.4338.7233-4.2123,1.38-8.6575.7885-12.8361C106.7467,19.3666,87.3713,5.7072,68.42,8.4409c-22.3133,3.2186-35.6684,22.5285-31.702,40.15.8385,3.7251,1.9021,4.9631,5.6415,4.8838C52.5038,53.26,62.656,53.4013,72.8053,53.4ZM32.0965,71.9643c-3.4584,4.3123-2.9346,9.0969,1.1068,11.9893a8.5293,8.5293,0,0,0,12.1231-2.5315c2.6123-4.344.9191-9.2235-4.1549-11.7031-.9307,3.4132,3.2637,8.7775-2.802,10.0375C32.8447,80.9041,34.0519,74.7884,32.0965,71.9643Zm81.77-.18c-1.8354,3.3378-.893,9.0211-6.2272,7.9871-6.1227-1.187-1.9524-6.6191-2.864-10.0544-4.9362,2.4353-6.6706,7.0513-4.3708,11.3721A8.5762,8.5762,0,0,0,112.48,84.14C116.656,81.3952,117.3335,76.6861,113.8668,71.7841Z"/></svg>