<svg id="Layer_1" data-name="Layer 1" xmlns="http://www.w3.org/2000/svg" width="44.9847" height="61.7101" viewBox="0 0 44.9847 61.7101"><title>volunteer</title><path d="M30,61.71H13.92c0-2.712-.0632-5.4262.026-8.1353A3.1,3.1,0,0,0,12.4043,50.36,10.8091,10.8091,0,0,1,9.8425,47.425a13.8389,13.8389,0,0,1-1.4356-2.48C7.3465,42.7376,4.2989,36.8424,0,28.59c.7546-1.4637,1.6579-2.1914,2.811-1.802a6.6855,6.6855,0,0,1,2.6116,1.7356c1.2668,1.35,2.3456,2.8774,3.5028,4.3306l.3131-.1V31.39q0-11.0384.0045-22.0769a5.5279,5.5279,0,0,1,.1367-1.9,3.3855,3.3855,0,0,1,1.2227-1.748,2.6524,2.6524,0,0,1,4.0335,2.5131c.0135,5.0917-.0366,14.2828.0222,14.9978a.5453.5453,0,0,0,.1668.3872.4888.4888,0,0,0,.4016.0662.5663.5663,0,0,0,.3871-.4449v0c0-.0518.0257-4.8689.0258-9.5978,0-3.5595-.02-7.1192.008-10.6785A2.6518,2.6518,0,0,1,19.2526.166,2.565,2.565,0,0,1,20.43.8934a3.1746,3.1746,0,0,1,.6471,2.1683c-.0285,1.72.0164,9.3327.0206,19.79a.4226.4226,0,0,0,.1382.319.386.386,0,0,0,.4052.0133.4165.4165,0,0,0,.1894-.2439s.006-11.0728.0113-16.7976a2.6614,2.6614,0,1,1,5.3111-.086c.013,3.9037-.0032,16.289.0148,16.7976.0039.11.0184.4166.1989.5116a.2986.2986,0,0,0,.2609,0c.1648-.0811.2043-.3131.2178-.3923.1121-.6582-.1811-8.6972-.0038-11.6951a3.3852,3.3852,0,0,1,.9761-2.5112,2.6543,2.6543,0,0,1,1.7581-.5365c1.6491.0276,2.5746,1.1226,2.5844,3.0525q.0395,7.797.0838,15.5939c.0023.3869.0412.7736.0688,1.26.492-.0744.8741-.1505,1.26-.1876,3.6158-.3469,6.6847.738,8.78,3.7723a5.7636,5.7636,0,0,1,.4941.8911,11.2092,11.2092,0,0,1,1.0945,5.8259,10.1354,10.1354,0,0,1-.218,1.2936,15.4,15.4,0,0,1-3.8418,7.2812,80.6008,80.6008,0,0,1-10.14,8.8544,1.7543,1.7543,0,0,0-.6705,1.1861C29.9805,58.6021,30.0135,60.1575,30,61.71ZM15.84,37.3358A11.8682,11.8682,0,0,0,18.9313,45.19a57.8171,57.8171,0,0,0,9.8708,8.8866c.6241.477,1.0846.2653,1.6-.1114a51.8638,51.8638,0,0,0,9.5026-8.57,13.32,13.32,0,0,0,2.9076-5.5812,9.24,9.24,0,0,0-.4808-6.4392c-2.2177-4.2942-8.8481-5.1361-11.8086-1.3964-.6279.7932-1.1784.9277-1.95.1325a7.5558,7.5558,0,0,0-8.4525-1.8758C17.293,31.384,15.8387,33.7963,15.84,37.3358Z"/></svg>